<?xml version="1.0" encoding="utf-8"?>
<!-- License: CC Attribution. Made by salesforce: https://lightningdesignsystem.com/ -->
<svg width="22" height="22" viewBox="0 0 22 22" fill="none" xmlns="http://www.w3.org/2000/svg">
<path d="M11 22C9.47222 22 8.0412 21.7097 6.70694 21.1292C5.37269 20.5486 4.21157 19.7644 3.22361 18.7764C2.23565 17.7884 1.45139 16.6273 0.870833 15.2931C0.290278 13.9588 0 12.5278 0 11C0 9.47222 0.290278 8.0412 0.870833 6.70694C1.45139 5.37269 2.23565 4.21157 3.22361 3.22361C4.21157 2.23565 5.37269 1.45139 6.70694 0.870833C8.0412 0.290278 9.47222 0 11 0C12.6704 0 14.2542 0.356481 15.7514 1.06944C17.2486 1.78241 18.5167 2.79074 19.5556 4.09444V1.22222H22V8.55556H14.6667V6.11111H18.0278C17.1926 4.97037 16.1639 4.07407 14.9417 3.42222C13.7194 2.77037 12.4056 2.44444 11 2.44444C8.61667 2.44444 6.59491 3.27454 4.93472 4.93472C3.27454 6.59491 2.44444 8.61667 2.44444 11C2.44444 13.3833 3.27454 15.4051 4.93472 17.0653C6.59491 18.7255 8.61667 19.5556 11 19.5556C13.1389 19.5556 15.0079 18.863 16.6069 17.4778C18.206 16.0926 19.1481 14.3407 19.4333 12.2222H21.9389C21.6333 15.013 20.4366 17.3403 18.3486 19.2042C16.2606 21.0681 13.8111 22 11 22ZM14.4222 16.1333L9.77778 11.4889V4.88889H12.2222V10.5111L16.1333 14.4222L14.4222 16.1333Z" fill="#0D47A1"/>
</svg>
